<?xml version="1.0" encoding="UTF-8"?>
<svg xmlns="http://www.w3.org/2000/svg" xmlns:xlink="http://www.w3.org/1999/xlink" width="100px" height="100px" viewBox="0 0 100 100" version="1.1">
<g id="surface1">
<rect x="0" y="0" width="100" height="100" style="fill:rgb(0%,0%,40%);fill-opacity:1;stroke:none;"/>
<path style=" stroke:none;fill-rule:nonzero;fill:rgb(100%,100%,100%);fill-opacity:1;" d="M 0 0 L 0 5.824219 L 47.972656 52.082031 L 54.011719 52.082031 L 54.011719 46.261719 L 6.039062 0 Z M 54.011719 0 L 54.011719 5.824219 L 6.039062 52.082031 L 0 52.082031 L 0 46.261719 L 47.972656 0 Z M 54.011719 0 "/>
<path style=" stroke:none;fill-rule:nonzero;fill:rgb(100%,100%,100%);fill-opacity:1;" d="M 22.503906 0 L 22.503906 52.082031 L 31.507812 52.082031 L 31.507812 0 Z M 0 17.359375 L 0 34.722656 L 54.011719 34.722656 L 54.011719 17.359375 Z M 0 17.359375 "/>
<path style=" stroke:none;fill-rule:nonzero;fill:rgb(80%,0%,0%);fill-opacity:1;" d="M 0 20.832031 L 0 31.25 L 54.011719 31.25 L 54.011719 20.832031 Z M 24.304688 0 L 24.304688 52.082031 L 29.707031 52.082031 L 29.707031 0 Z M 0 52.082031 L 18.003906 34.722656 L 22.03125 34.722656 L 4.027344 52.082031 Z M 0 0 L 18.003906 17.359375 L 13.980469 17.359375 L 0 3.882812 Z M 31.984375 17.359375 L 49.988281 0 L 54.011719 0 L 36.007812 17.359375 Z M 54.011719 52.082031 L 36.007812 34.722656 L 40.035156 34.722656 L 54.011719 48.203125 Z M 54.011719 52.082031 "/>
<path style=" stroke:none;fill-rule:evenodd;fill:rgb(100%,100%,100%);fill-opacity:1;" d="M 46.835938 81.777344 L 40.015625 82.566406 L 40.957031 91.609375 L 36.238281 84.992188 L 31.523438 91.609375 L 32.464844 82.566406 L 25.640625 81.777344 L 31.53125 77.117188 L 27.742188 69.511719 L 34.144531 72.746094 L 36.238281 64.054688 L 38.335938 72.746094 L 44.738281 69.511719 L 40.949219 77.117188 M 76.019531 90.109375 L 74.375 86.808594 L 77.15625 88.210938 L 78.066406 84.4375 L 78.976562 88.210938 L 81.757812 86.808594 L 80.113281 90.109375 L 82.671875 92.136719 L 79.707031 92.480469 L 80.117188 96.40625 L 78.066406 93.53125 L 76.015625 96.40625 L 76.425781 92.480469 L 73.460938 92.136719 M 76.019531 31.339844 L 74.375 28.035156 L 77.15625 29.441406 L 78.066406 25.667969 L 78.976562 29.441406 L 81.757812 28.035156 L 80.113281 31.339844 L 82.671875 33.363281 L 79.707031 33.707031 L 80.117188 37.636719 L 78.066406 34.761719 L 76.015625 37.636719 L 76.425781 33.707031 L 73.460938 33.363281 M 59.492188 55.214844 L 57.84375 51.914062 L 60.628906 53.316406 L 61.539062 49.542969 L 62.449219 53.316406 L 65.230469 51.914062 L 63.582031 55.214844 L 66.140625 57.238281 L 63.179688 57.582031 L 63.585938 61.511719 L 61.539062 58.636719 L 59.488281 61.511719 L 59.898438 57.582031 L 56.933594 57.238281 M 90.714844 49.339844 L 89.066406 46.035156 L 91.851562 47.441406 L 92.753906 43.664062 L 93.667969 47.441406 L 96.445312 46.035156 L 94.804688 49.339844 L 97.359375 51.363281 L 94.398438 51.707031 L 94.804688 55.632812 L 92.753906 52.761719 L 90.707031 55.632812 L 91.113281 51.707031 L 88.15625 51.363281 M 84.679688 66.652344 L 83.058594 67.992188 L 83.511719 65.523438 L 82.058594 63.886719 L 83.957031 63.699219 L 84.679688 61.347656 L 85.398438 63.699219 L 87.296875 63.886719 L 85.84375 65.527344 L 86.296875 67.992188 "/>
</g>
</svg>
