<?xml version="1.0" encoding="UTF-8"?>
<svg xmlns="http://www.w3.org/2000/svg" xmlns:xlink="http://www.w3.org/1999/xlink" width="100px" height="100px" viewBox="0 0 100 100" version="1.1">
<g id="surface1">
<path style=" stroke:none;fill-rule:nonzero;fill:rgb(100%,100%,100%);fill-opacity:1;" d="M 23.464844 0 L 76.535156 0 L 76.535156 100 L 23.464844 100 Z M 23.464844 0 "/>
<path style=" stroke:none;fill-rule:nonzero;fill:rgb(74.901962%,3.921569%,18.82353%);fill-opacity:1;" d="M -3.066406 0 L 23.464844 0 L 23.464844 100 L -3.066406 100 Z M 76.535156 0 L 103.066406 0 L 103.066406 100 L 76.535156 100 Z M 31.402344 48.320312 L 29.339844 49.261719 L 38.929688 60.480469 C 39.65625 63.363281 38.675781 64.214844 38.054688 65.726562 L 48.464844 63.964844 L 48.191406 77.933594 L 50.347656 77.851562 L 49.878906 64 L 60.296875 65.644531 C 59.652344 63.828125 59.078125 62.867188 59.675781 59.960938 L 69.257812 49.332031 L 67.582031 48.523438 C 66.210938 47.113281 68.175781 41.730469 68.46875 38.332031 C 68.46875 38.332031 62.875 40.898438 62.507812 39.554688 L 61.082031 35.90625 L 55.992188 43.359375 C 55.4375 43.539062 55.199219 43.242188 55.070312 42.617188 L 57.421875 27.039062 L 53.699219 29.832031 C 53.386719 30.007812 53.074219 29.855469 52.871094 29.371094 L 49.289062 19.789062 L 45.59375 29.738281 C 45.316406 30.097656 45.039062 30.136719 44.804688 29.894531 L 41.261719 27.242188 L 43.390625 42.699219 C 43.21875 43.3125 42.816406 43.488281 42.335938 43.15625 L 37.472656 35.785156 C 36.835938 37.144531 36.402344 39.367188 35.5625 39.863281 C 34.722656 40.328125 31.902344 38.921875 30.015625 38.371094 C 30.660156 41.476562 32.675781 46.632812 31.402344 48.324219 Z M 31.402344 48.320312 "/>
</g>
</svg>
