<?xml version="1.0" encoding="UTF-8"?>
<svg xmlns="http://www.w3.org/2000/svg" xmlns:xlink="http://www.w3.org/1999/xlink" width="100px" height="100px" viewBox="0 0 100 100" version="1.1">
<g id="surface1">
<rect x="0" y="0" width="100" height="100" style="fill:rgb(87.058824%,16.078432%,6.27451%);fill-opacity:1;stroke:none;"/>
<path style=" stroke:none;fill-rule:nonzero;fill:rgb(100%,87.058824%,0%);fill-opacity:1;" d="M 12.136719 37.148438 L 18.75 10 L 25.363281 37.148438 L 8.039062 20.351562 L 29.460938 20.351562 Z M 12.136719 37.148438 "/>
<path style=" stroke:none;fill-rule:nonzero;fill:rgb(100%,87.058824%,0%);fill-opacity:1;" d="M 41.285156 10.4375 L 34.328125 12.570312 L 39.019531 5.394531 L 38.382812 14.878906 L 34.714844 6.710938 Z M 41.285156 10.4375 "/>
<path style=" stroke:none;fill-rule:nonzero;fill:rgb(100%,87.058824%,0%);fill-opacity:1;" d="M 48.308594 22.296875 L 41.28125 20.664062 L 47.6875 16.476562 L 44.34375 24.886719 L 43.335938 15.464844 Z M 48.308594 22.296875 "/>
<path style=" stroke:none;fill-rule:nonzero;fill:rgb(100%,87.058824%,0%);fill-opacity:1;" d="M 47.308594 38.941406 L 41.386719 33.628906 L 48.519531 33.289062 L 42.894531 39.152344 L 44.859375 30 Z M 47.308594 38.941406 "/>
<path style=" stroke:none;fill-rule:nonzero;fill:rgb(100%,87.058824%,0%);fill-opacity:1;" d="M 38.484375 49.835938 L 34.5625 41.886719 L 41.238281 45.246094 L 34.351562 47.757812 L 38.8125 40.328125 Z M 38.484375 49.835938 "/>
</g>
</svg>
