<?xml version="1.0" encoding="UTF-8"?>
<svg xmlns="http://www.w3.org/2000/svg" xmlns:xlink="http://www.w3.org/1999/xlink" width="100px" height="100px" viewBox="0 0 100 100" version="1.1">
<g id="surface1">
<rect x="0" y="0" width="100" height="100" style="fill:rgb(0%,0%,40.000001%);fill-opacity:1;stroke:none;"/>
<path style=" stroke:none;fill-rule:nonzero;fill:rgb(100%,100%,100%);fill-opacity:1;" d="M -25.101562 0 L -25.101562 11.210938 L 108.488281 100.269531 L 125.304688 100.269531 L 125.304688 89.058594 L -8.285156 0 Z M 125.304688 0 L 125.304688 11.210938 L -8.285156 100.269531 L -25.101562 100.269531 L -25.101562 89.058594 L 108.488281 0 Z M 125.304688 0 "/>
<path style=" stroke:none;fill-rule:nonzero;fill:rgb(100%,100%,100%);fill-opacity:1;" d="M 37.566406 0 L 37.566406 100.269531 L 62.636719 100.269531 L 62.636719 0 Z M -25.101562 33.421875 L -25.101562 66.847656 L 125.304688 66.847656 L 125.304688 33.421875 Z M -25.101562 33.421875 "/>
<path style=" stroke:none;fill-rule:nonzero;fill:rgb(80.000001%,0%,0%);fill-opacity:1;" d="M -25.101562 40.109375 L -25.101562 60.160156 L 125.304688 60.160156 L 125.304688 40.109375 Z M 42.582031 0 L 42.582031 100.269531 L 57.621094 100.269531 L 57.621094 0 Z M -25.101562 100.269531 L 25.035156 66.847656 L 36.246094 66.847656 L -13.890625 100.269531 Z M -25.101562 0 L 25.035156 33.421875 L 13.824219 33.421875 L -25.101562 7.472656 Z M 63.957031 33.421875 L 114.09375 0 L 125.304688 0 L 75.167969 33.421875 Z M 125.304688 100.269531 L 75.167969 66.847656 L 86.378906 66.847656 L 125.304688 92.796875 Z M 125.304688 100.269531 "/>
</g>
</svg>
