<svg xmlns="http://www.w3.org/2000/svg" xmlns:xlink="http://www.w3.org/1999/xlink" contentStyleType="text/css" height="214px" preserveAspectRatio="none" style="width:9224px;height:214px;background:#FFFFFF;" version="1.1" viewBox="0 0 9224 214" width="9224px" zoomAndPan="magnify"><defs/><g><!--cluster Authentication--><g id="cluster_Authentication"><rect fill="none" height="87.4" rx="2.5" ry="2.5" style="stroke:#181818;stroke-width:1.0;" width="444" x="7787" y="113.84"/><text fill="#000000" font-family="sans-serif" font-size="14" font-weight="bold" lengthAdjust="spacing" textLength="117.2363" x="7950.3818" y="128.8351">Authentication</text></g><!--cluster Employee Management--><g id="cluster_Employee Management"><rect fill="none" height="95.12" rx="2.5" ry="2.5" style="stroke:#181818;stroke-width:1.0;" width="998" x="4397" y="109.98"/><text fill="#000000" font-family="sans-serif" font-size="14" font-weight="bold" lengthAdjust="spacing" textLength="184.6318" x="4803.6841" y="124.9751">Employee Management</text></g><!--cluster Department Management--><g id="cluster_Department Management"><rect fill="none" height="97.92" rx="2.5" ry="2.5" style="stroke:#181818;stroke-width:1.0;" width="1061" x="7" y="108.58"/><text fill="#000000" font-family="sans-serif" font-size="14" font-weight="bold" lengthAdjust="spacing" textLength="202.8496" x="436.0752" y="123.5751">Department Management</text></g><!--cluster Attendance Management--><g id="cluster_Attendance Management"><rect fill="none" height="99.6" rx="2.5" ry="2.5" style="stroke:#181818;stroke-width:1.0;" width="1216" x="5419" y="107.74"/><text fill="#000000" font-family="sans-serif" font-size="14" font-weight="bold" lengthAdjust="spacing" textLength="198.8369" x="5927.5815" y="122.7351">Attendance Management</text></g><!--cluster Leave Management--><g id="cluster_Leave Management"><rect fill="none" height="97.8" rx="2.5" ry="2.5" style="stroke:#181818;stroke-width:1.0;" width="1104" x="6659" y="108.64"/><text fill="#000000" font-family="sans-serif" font-size="14" font-weight="bold" lengthAdjust="spacing" textLength="154.4102" x="7133.7949" y="123.6351">Leave Management</text></g><!--cluster Performance Management--><g id="cluster_Performance Management"><rect fill="none" height="101.48" rx="2.5" ry="2.5" style="stroke:#181818;stroke-width:1.0;" width="1261" x="1092" y="106.8"/><text fill="#000000" font-family="sans-serif" font-size="14" font-weight="bold" lengthAdjust="spacing" textLength="208.9951" x="1618.0024" y="121.7951">Performance Management</text></g><!--cluster Payroll Management--><g id="cluster_Payroll Management"><rect fill="none" height="93.54" rx="2.5" ry="2.5" style="stroke:#181818;stroke-width:1.0;" width="1066" x="2377" y="110.77"/><text fill="#000000" font-family="sans-serif" font-size="14" font-weight="bold" lengthAdjust="spacing" textLength="162.8799" x="2828.5601" y="125.7651">Payroll Management</text></g><!--cluster Common--><g id="cluster_Common"><rect fill="none" height="88.98" rx="2.5" ry="2.5" style="stroke:#181818;stroke-width:1.0;" width="528" x="8690" y="113.05"/><text fill="#000000" font-family="sans-serif" font-size="14" font-weight="bold" lengthAdjust="spacing" textLength="68.6533" x="8919.6733" y="128.0451">Common</text></g><!--cluster Security--><g id="cluster_Security"><rect fill="none" height="95.72" rx="2.5" ry="2.5" style="stroke:#181818;stroke-width:1.0;" width="411" x="8255" y="109.68"/><text fill="#000000" font-family="sans-serif" font-size="14" font-weight="bold" lengthAdjust="spacing" textLength="65.3652" x="8427.8174" y="124.6751">Security</text></g><!--cluster Reports--><g id="cluster_Reports"><rect fill="none" height="91.14" rx="2.5" ry="2.5" style="stroke:#181818;stroke-width:1.0;" width="906" x="3467" y="111.97"/><text fill="#000000" font-family="sans-serif" font-size="14" font-weight="bold" lengthAdjust="spacing" textLength="61.8447" x="3889.0776" y="126.9651">Reports</text></g><g id="elem_UC_Login"><ellipse cx="7841.0041" cy="167.0357" fill="#F1F1F1" rx="38.4641" ry="14.5557" style="stroke:#181818;stroke-width:0.5;"/><text fill="#000000" font-family="sans-serif" font-size="14" lengthAdjust="spacing" textLength="38.0146" x="7820.13" y="170.4906">Login</text></g><g id="elem_UC_Register"><ellipse cx="7967.9984" cy="167.0432" fill="#F1F1F1" rx="53.5484" ry="14.7232" style="stroke:#181818;stroke-width:0.5;"/><text fill="#000000" font-family="sans-serif" font-size="14" lengthAdjust="spacing" textLength="58.2695" x="7935.8636" y="170.7907">Register</text></g><g id="elem_UC_ForgotPassword"><ellipse cx="8135.9987" cy="167.0357" fill="#F1F1F1" rx="78.9787" ry="18.1957" style="stroke:#181818;stroke-width:0.5;"/><text fill="#000000" font-family="sans-serif" font-size="14" lengthAdjust="spacing" textLength="116.0332" x="8075.9223" y="170.5298">Forgot Password</text></g><g id="elem_UC_ViewEmployeeList"><ellipse cx="4500.9997" cy="167.0359" fill="#F1F1F1" rx="87.5797" ry="19.9159" style="stroke:#181818;stroke-width:0.5;"/><text fill="#000000" font-family="sans-serif" font-size="14" lengthAdjust="spacing" textLength="136.2402" x="4432.8795" y="169.8826">View Employee List</text></g><g id="elem_UC_ViewEmployeeDetails"><ellipse cx="4721.9994" cy="167.0399" fill="#F1F1F1" rx="98.2994" ry="22.0599" style="stroke:#181818;stroke-width:0.5;"/><text fill="#000000" font-family="sans-serif" font-size="14" lengthAdjust="spacing" textLength="160.3027" x="4641.8481" y="169.8866">View Employee Details</text></g><g id="elem_UC_AddEmployee"><ellipse cx="5125.0004" cy="167.0441" fill="#F1F1F1" rx="73.1204" ry="17.0241" style="stroke:#181818;stroke-width:0.5;"/><text fill="#000000" font-family="sans-serif" font-size="14" lengthAdjust="spacing" textLength="101.1377" x="5071.4316" y="170.7916">Add Employee</text></g><g id="elem_UC_EditEmployee"><ellipse cx="5305.9991" cy="167.0358" fill="#F1F1F1" rx="73.0291" ry="17.0058" style="stroke:#181818;stroke-width:0.5;"/><text fill="#000000" font-family="sans-serif" font-size="14" lengthAdjust="spacing" textLength="100.8984" x="5252.5499" y="170.7834">Edit Employee</text></g><g id="elem_UC_DeleteEmployee"><ellipse cx="4936.0019" cy="167.0444" fill="#F1F1F1" rx="80.5219" ry="18.5044" style="stroke:#181818;stroke-width:0.5;"/><text fill="#000000" font-family="sans-serif" font-size="14" lengthAdjust="spacing" textLength="119.7861" x="4874.6378" y="170.3669">Delete Employee</text></g><g id="elem_UC_ViewDepartmentList"><ellipse cx="117.0042" cy="167.0388" fill="#F1F1F1" rx="94.3942" ry="21.2788" style="stroke:#181818;stroke-width:0.5;"/><text fill="#000000" font-family="sans-serif" font-size="14" lengthAdjust="spacing" textLength="151.6211" x="41.1936" y="169.8855">View Department List</text></g><g id="elem_UC_ViewDepartmentDetails"><ellipse cx="352.0045" cy="167.0409" fill="#F1F1F1" rx="105.3045" ry="23.4609" style="stroke:#181818;stroke-width:0.5;"/><text fill="#000000" font-family="sans-serif" font-size="14" lengthAdjust="spacing" textLength="175.6836" x="264.1627" y="169.8876">View Department Details</text></g><g id="elem_UC_AddDepartment"><ellipse cx="570.9967" cy="167.0353" fill="#F1F1F1" rx="79.1767" ry="18.2353" style="stroke:#181818;stroke-width:0.5;"/><text fill="#000000" font-family="sans-serif" font-size="14" lengthAdjust="spacing" textLength="116.5186" x="510.755" y="170.5073">Add Department</text></g><g id="elem_UC_EditDepartment"><ellipse cx="763.999" cy="167.0358" fill="#F1F1F1" rx="79.079" ry="18.2158" style="stroke:#181818;stroke-width:0.5;"/><text fill="#000000" font-family="sans-serif" font-size="14" lengthAdjust="spacing" textLength="116.2793" x="703.8389" y="170.5187">Edit Department</text></g><g id="elem_UC_DeleteDepartment"><ellipse cx="964.9998" cy="167.042" fill="#F1F1F1" rx="87.1098" ry="19.822" style="stroke:#181818;stroke-width:0.5;"/><text fill="#000000" font-family="sans-serif" font-size="14" lengthAdjust="spacing" textLength="135.167" x="897.4163" y="169.8886">Delete Department</text></g><g id="elem_UC_ViewAttendanceRecords"><ellipse cx="5542.0022" cy="167.0364" fill="#F1F1F1" rx="107.1322" ry="23.8264" style="stroke:#181818;stroke-width:0.5;"/><text fill="#000000" font-family="sans-serif" font-size="14" lengthAdjust="spacing" textLength="179.6621" x="5452.1712" y="169.8831">View Attendance Records</text></g><g id="elem_UC_ViewAttendanceDetails"><ellipse cx="5788.001" cy="167.0422" fill="#F1F1F1" rx="103.461" ry="23.0922" style="stroke:#181818;stroke-width:0.5;"/><text fill="#000000" font-family="sans-serif" font-size="14" lengthAdjust="spacing" textLength="171.6572" x="5702.1724" y="169.8889">View Attendance Details</text></g><g id="elem_UC_AddAttendanceRecord"><ellipse cx="6280.9979" cy="167.0436" fill="#F1F1F1" rx="100.9679" ry="22.5936" style="stroke:#181818;stroke-width:0.5;"/><text fill="#000000" font-family="sans-serif" font-size="14" lengthAdjust="spacing" textLength="166.1885" x="6197.9037" y="169.8903">Add Attendance Record</text></g><g id="elem_UC_EditAttendanceRecord"><ellipse cx="6517.9991" cy="167.0418" fill="#F1F1F1" rx="100.8591" ry="22.5718" style="stroke:#181818;stroke-width:0.5;"/><text fill="#000000" font-family="sans-serif" font-size="14" lengthAdjust="spacing" textLength="165.9492" x="6435.0245" y="169.8885">Edit Attendance Record</text></g><g id="elem_UC_DeleteAttendanceRecord"><ellipse cx="6035.9982" cy="167.0436" fill="#F1F1F1" rx="109.5182" ry="24.3036" style="stroke:#181818;stroke-width:0.5;"/><text fill="#000000" font-family="sans-serif" font-size="14" lengthAdjust="spacing" textLength="184.8369" x="5943.5797" y="169.8903">Delete Attendance Record</text></g><g id="elem_UC_ViewLeaveApplications"><ellipse cx="6985.0007" cy="167.0361" fill="#F1F1F1" rx="102.6307" ry="22.9261" style="stroke:#181818;stroke-width:0.5;"/><text fill="#000000" font-family="sans-serif" font-size="14" lengthAdjust="spacing" textLength="169.8389" x="6900.0812" y="169.8828">View Leave Applications</text></g><g id="elem_UC_ViewLeaveDetails"><ellipse cx="6761.001" cy="167.0402" fill="#F1F1F1" rx="86.101" ry="19.6202" style="stroke:#181818;stroke-width:0.5;"/><text fill="#000000" font-family="sans-serif" font-size="14" lengthAdjust="spacing" textLength="132.8564" x="6694.5728" y="169.8869">View Leave Details</text></g><g id="elem_UC_ApplyForLeave"><ellipse cx="7671.0004" cy="167.0381" fill="#F1F1F1" rx="76.3904" ry="17.6781" style="stroke:#181818;stroke-width:0.5;"/><text fill="#000000" font-family="sans-serif" font-size="14" lengthAdjust="spacing" textLength="109.5664" x="7613.2172" y="170.7856">Apply for Leave</text></g><g id="elem_UC_EditLeaveApplication"><ellipse cx="7218.9958" cy="167.0432" fill="#F1F1F1" rx="96.4158" ry="21.6832" style="stroke:#181818;stroke-width:0.5;"/><text fill="#000000" font-family="sans-serif" font-size="14" lengthAdjust="spacing" textLength="156.126" x="7140.9328" y="169.8898">Edit Leave Application</text></g><g id="elem_UC_DeleteLeaveApplication"><ellipse cx="7454.9973" cy="167.0395" fill="#F1F1F1" rx="104.9973" ry="23.3995" style="stroke:#181818;stroke-width:0.5;"/><text fill="#000000" font-family="sans-serif" font-size="14" lengthAdjust="spacing" textLength="175.0137" x="7367.4905" y="169.8861">Delete Leave Application</text></g><g id="elem_UC_ViewPerformanceReviews"><ellipse cx="1219.9992" cy="167.0398" fill="#F1F1F1" rx="111.7992" ry="24.7598" style="stroke:#181818;stroke-width:0.5;"/><text fill="#000000" font-family="sans-serif" font-size="14" lengthAdjust="spacing" textLength="189.7656" x="1125.1164" y="169.8865">View Performance Reviews</text></g><g id="elem_UC_ViewPerformanceDetails"><ellipse cx="1474.0046" cy="167.0369" fill="#F1F1F1" rx="107.4846" ry="23.8969" style="stroke:#181818;stroke-width:0.5;"/><text fill="#000000" font-family="sans-serif" font-size="14" lengthAdjust="spacing" textLength="180.4277" x="1383.7907" y="169.8836">View Performance Details</text></g><g id="elem_UC_AddPerformanceReview"><ellipse cx="1722.0036" cy="167.0367" fill="#F1F1F1" rx="105.5836" ry="23.5167" style="stroke:#181818;stroke-width:0.5;"/><text fill="#000000" font-family="sans-serif" font-size="14" lengthAdjust="spacing" textLength="176.292" x="1633.8576" y="169.8834">Add Performance Review</text></g><g id="elem_UC_EditPerformanceReview"><ellipse cx="1968.0038" cy="167.0448" fill="#F1F1F1" rx="105.4738" ry="23.4948" style="stroke:#181818;stroke-width:0.5;"/><text fill="#000000" font-family="sans-serif" font-size="14" lengthAdjust="spacing" textLength="176.0527" x="1879.9775" y="169.8914">Edit Performance Review</text></g><g id="elem_UC_DeletePerformanceReview"><ellipse cx="2223.0026" cy="167.0405" fill="#F1F1F1" rx="114.2026" ry="25.2405" style="stroke:#181818;stroke-width:0.5;"/><text fill="#000000" font-family="sans-serif" font-size="14" lengthAdjust="spacing" textLength="194.9404" x="2125.5324" y="169.8872">Delete Performance Review</text></g><g id="elem_UC_ViewPayrollRecords"><ellipse cx="2484.9951" cy="167.041" fill="#F1F1F1" rx="92.0551" ry="20.811" style="stroke:#181818;stroke-width:0.5;"/><text fill="#000000" font-family="sans-serif" font-size="14" lengthAdjust="spacing" textLength="146.3779" x="2411.8062" y="169.8877">View Payroll Records</text></g><g id="elem_UC_ViewPayrollDetails"><ellipse cx="2700.9957" cy="167.0431" fill="#F1F1F1" rx="88.5157" ry="20.1031" style="stroke:#181818;stroke-width:0.5;"/><text fill="#000000" font-family="sans-serif" font-size="14" lengthAdjust="spacing" textLength="138.373" x="2631.8092" y="169.8898">View Payroll Details</text></g><g id="elem_UC_AddPayrollRecord"><ellipse cx="2911.0018" cy="167.0444" fill="#F1F1F1" rx="86.1218" ry="19.6244" style="stroke:#181818;stroke-width:0.5;"/><text fill="#000000" font-family="sans-serif" font-size="14" lengthAdjust="spacing" textLength="132.9043" x="2844.5497" y="169.891">Add Payroll Record</text></g><g id="elem_UC_EditPayrollRecord"><ellipse cx="3117.9976" cy="167.0435" fill="#F1F1F1" rx="86.0176" ry="19.6035" style="stroke:#181818;stroke-width:0.5;"/><text fill="#000000" font-family="sans-serif" font-size="14" lengthAdjust="spacing" textLength="132.665" x="3051.6651" y="169.8902">Edit Payroll Record</text></g><g id="elem_UC_DeletePayrollRecord"><ellipse cx="3333.0036" cy="167.0427" fill="#F1F1F1" rx="94.3636" ry="21.2727" style="stroke:#181818;stroke-width:0.5;"/><text fill="#000000" font-family="sans-serif" font-size="14" lengthAdjust="spacing" textLength="151.5527" x="3257.2272" y="169.8894">Delete Payroll Record</text></g><g id="elem_UC_ViewProfile"><ellipse cx="8972.9958" cy="167.0372" fill="#F1F1F1" rx="66.1358" ry="15.6272" style="stroke:#181818;stroke-width:0.5;"/><text fill="#000000" font-family="sans-serif" font-size="14" lengthAdjust="spacing" textLength="82.0654" x="8928.9631" y="170.7847">View Profile</text></g><g id="elem_UC_EditProfile"><ellipse cx="9138.0009" cy="167.0382" fill="#F1F1F1" rx="63.9409" ry="15.1882" style="stroke:#181818;stroke-width:0.5;"/><text fill="#000000" font-family="sans-serif" font-size="14" lengthAdjust="spacing" textLength="75.6465" x="9097.1776" y="170.7857">Edit Profile</text></g><g id="elem_UC_ViewNotifications"><ellipse cx="8788.9988" cy="167.0438" fill="#F1F1F1" rx="82.9688" ry="18.9938" style="stroke:#181818;stroke-width:0.5;"/><text fill="#000000" font-family="sans-serif" font-size="14" lengthAdjust="spacing" textLength="125.6035" x="8725.5934" y="170.0943">View Notifications</text></g><g id="elem_UC_ManageRoles"><ellipse cx="8342.9961" cy="167.0372" fill="#F1F1F1" rx="71.9861" ry="16.7972" style="stroke:#181818;stroke-width:0.5;"/><text fill="#000000" font-family="sans-serif" font-size="14" lengthAdjust="spacing" textLength="98.1504" x="8290.9209" y="170.7848">Manage Roles</text></g><g id="elem_UC_ManageAccessControl"><ellipse cx="8550.0013" cy="167.0383" fill="#F1F1F1" rx="99.7913" ry="22.3583" style="stroke:#181818;stroke-width:0.5;"/><text fill="#000000" font-family="sans-serif" font-size="14" lengthAdjust="spacing" textLength="163.5977" x="8468.2025" y="169.8849">Manage Access Control</text></g><g id="elem_UC_ViewReports"><ellipse cx="3553.0001" cy="167.042" fill="#F1F1F1" rx="69.8101" ry="16.362" style="stroke:#181818;stroke-width:0.5;"/><text fill="#000000" font-family="sans-serif" font-size="14" lengthAdjust="spacing" textLength="92.3125" x="3503.8439" y="170.7896">View Reports</text></g><g id="elem_UC_ViewReportDetails"><ellipse cx="3746.0035" cy="167.0407" fill="#F1F1F1" rx="88.3535" ry="20.0707" style="stroke:#181818;stroke-width:0.5;"/><text fill="#000000" font-family="sans-serif" font-size="14" lengthAdjust="spacing" textLength="138.0039" x="3677.0015" y="169.8874">View Report Details</text></g><g id="elem_UC_CreateReport"><ellipse cx="3940.998" cy="167.0396" fill="#F1F1F1" rx="72.048" ry="16.8096" style="stroke:#181818;stroke-width:0.5;"/><text fill="#000000" font-family="sans-serif" font-size="14" lengthAdjust="spacing" textLength="98.3145" x="3888.8408" y="170.7872">Create Report</text></g><g id="elem_UC_EditReport"><ellipse cx="4112.9997" cy="167.0379" fill="#F1F1F1" rx="64.9397" ry="15.3879" style="stroke:#181818;stroke-width:0.5;"/><text fill="#000000" font-family="sans-serif" font-size="14" lengthAdjust="spacing" textLength="78.5996" x="4070.6999" y="170.7855">Edit Report</text></g><g id="elem_UC_DeleteReport"><ellipse cx="4284.9962" cy="167.0372" fill="#F1F1F1" rx="71.7362" ry="16.7472" style="stroke:#181818;stroke-width:0.5;"/><text fill="#000000" font-family="sans-serif" font-size="14" lengthAdjust="spacing" textLength="97.4873" x="4233.2525" y="170.7848">Delete Report</text></g><!--entity Admin--><g id="elem_Admin"><ellipse cx="4501.0021" cy="14" fill="#F1F1F1" rx="8" ry="8" style="stroke:#181818;stroke-width:0.5;"/><path d="M4501.0021,22 L4501.0021,49 M4488.0021,30 L4514.0021,30 M4501.0021,49 L4488.0021,64 M4501.0021,49 L4514.0021,64 " fill="none" style="stroke:#181818;stroke-width:0.5;"/><text fill="#000000" font-family="sans-serif" font-size="14" lengthAdjust="spacing" textLength="44.8643" x="4478.57" y="78.4951">Admin</text></g><!--entity Employee--><g id="elem_Employee"><ellipse cx="7840.9985" cy="14" fill="#F1F1F1" rx="8" ry="8" style="stroke:#181818;stroke-width:0.5;"/><path d="M7840.9985,22 L7840.9985,49 M7827.9985,30 L7853.9985,30 M7840.9985,49 L7827.9985,64 M7840.9985,49 L7853.9985,64 " fill="none" style="stroke:#181818;stroke-width:0.5;"/><text fill="#000000" font-family="sans-serif" font-size="14" lengthAdjust="spacing" textLength="69.3369" x="7806.33" y="78.4951">Employee</text></g><!--entity Manager--><g id="elem_Manager"><ellipse cx="3746.0031" cy="14" fill="#F1F1F1" rx="8" ry="8" style="stroke:#181818;stroke-width:0.5;"/><path d="M3746.0031,22 L3746.0031,49 M3733.0031,30 L3759.0031,30 M3746.0031,49 L3733.0031,64 M3746.0031,49 L3759.0031,64 " fill="none" style="stroke:#181818;stroke-width:0.5;"/><text fill="#000000" font-family="sans-serif" font-size="14" lengthAdjust="spacing" textLength="61.3662" x="3715.32" y="78.4951">Manager</text></g><!--link Admin to UC_Login--><g id="link_Admin_UC_Login"><path d="M4523.7,44.58 C4804.68,43.8 7602.15,37.51 7763,98.8 C7791.74,109.75 7813.2336,131.7267 7826.7636,147.9967 " fill="none" id="Admin-to-UC_Login" style="stroke:#181818;stroke-width:1.0;"/><polygon fill="#181818" points="7830.6,152.61,7827.921,143.1325,7827.403,148.7656,7821.7699,148.2477,7830.6,152.61" style="stroke:#181818;stroke-width:1.0;"/></g><!--link Admin to UC_ViewEmployeeList--><g id="link_Admin_UC_ViewEmployeeList"><path d="M4501,82.06 C4501,103.52 4501,123.55 4501,140.89 " fill="none" id="Admin-to-UC_ViewEmployeeList" style="stroke:#181818;stroke-width:1.0;"/><polygon fill="#181818" points="4501,146.89,4505,137.89,4501,141.89,4497,137.89,4501,146.89" style="stroke:#181818;stroke-width:1.0;"/></g><!--link Admin to UC_ViewEmployeeDetails--><g id="link_Admin_UC_ViewEmployeeDetails"><path d="M4523.7,55.95 C4545.08,66.69 4577.93,83.44 4606,98.8 C4633.98,114.11 4660.0638,129.2388 4683.0738,142.8288 " fill="none" id="Admin-to-UC_ViewEmployeeDetails" style="stroke:#181818;stroke-width:1.0;"/><polygon fill="#181818" points="4688.24,145.88,4682.5248,137.859,4683.9348,143.3373,4678.4565,144.7473,4688.24,145.88" style="stroke:#181818;stroke-width:1.0;"/></g><!--link Admin to UC_AddEmployee--><g id="link_Admin_UC_AddEmployee"><path d="M4523.69,45.36 C4612.79,48.4 4938.46,61.87 5034,98.8 C5063.68,110.27 5087.8731,130.0353 5104.8431,146.0253 " fill="none" id="Admin-to-UC_AddEmployee" style="stroke:#181818;stroke-width:1.0;"/><polygon fill="#181818" points="5109.21,150.14,5105.4028,141.0567,5105.571,146.7111,5099.9166,146.8792,5109.21,150.14" style="stroke:#181818;stroke-width:1.0;"/></g><!--link Admin to UC_EditEmployee--><g id="link_Admin_UC_EditEmployee"><path d="M4523.79,44.68 C4630.91,45.06 5084.72,49.59 5216,98.8 C5245.59,109.89 5269.4518,129.7043 5286.1618,145.8243 " fill="none" id="Admin-to-UC_EditEmployee" style="stroke:#181818;stroke-width:1.0;"/><polygon fill="#181818" points="5290.48,149.99,5286.7799,140.8626,5286.8815,146.5186,5281.2256,146.6202,5290.48,149.99" style="stroke:#181818;stroke-width:1.0;"/></g><!--link Admin to UC_DeleteEmployee--><g id="link_Admin_UC_DeleteEmployee"><path d="M4523.58,44.9 C4579.12,46.22 4726.03,54.03 4838,98.8 C4867.89,110.75 4893.1315,129.2579 4911.8915,144.8979 " fill="none" id="Admin-to-UC_DeleteEmployee" style="stroke:#181818;stroke-width:1.0;"/><polygon fill="#181818" points="4916.5,148.74,4912.1486,139.9045,4912.6596,145.5383,4907.0258,146.0492,4916.5,148.74" style="stroke:#181818;stroke-width:1.0;"/></g><!--link Admin to UC_ViewDepartmentList--><g id="link_Admin_UC_ViewDepartmentList"><path d="M4478.13,46.25 C4389.92,52.34 4063.37,74.08 3794,81.8 C3744.51,83.22 276.68,85.46 229,98.8 C196.02,108.02 167.7682,126.1444 146.2082,142.4244 " fill="none" id="Admin-to-UC_ViewDepartmentList" style="stroke:#181818;stroke-width:1.0;"/><polygon fill="#181818" points="141.42,146.04,151.0128,143.8087,145.4102,143.027,146.192,137.4244,141.42,146.04" style="stroke:#181818;stroke-width:1.0;"/></g><!--link Admin to UC_ViewDepartmentDetails--><g id="link_Admin_UC_ViewDepartmentDetails"><path d="M4478.13,46.25 C4389.92,52.32 4063.37,74.04 3794,81.8 C3701.81,84.46 563.25,75.59 474,98.8 C440.06,107.63 410.3957,124.6522 386.7457,140.6922 " fill="none" id="Admin-to-UC_ViewDepartmentDetails" style="stroke:#181818;stroke-width:1.0;"/><polygon fill="#181818" points="381.78,144.06,391.4737,142.3187,385.918,141.2535,386.9833,135.6978,381.78,144.06" style="stroke:#181818;stroke-width:1.0;"/></g><!--link Admin to UC_AddDepartment--><g id="link_Admin_UC_AddDepartment"><path d="M4478.13,46.24 C4389.92,52.31 4063.37,73.99 3794,81.8 C3750.59,83.06 708.38,85.62 667,98.8 C635.98,108.68 610.6511,128.4136 592.7111,144.8736 " fill="none" id="Admin-to-UC_AddDepartment" style="stroke:#181818;stroke-width:1.0;"/><polygon fill="#181818" points="588.29,148.93,597.6259,145.7929,591.9742,145.5497,592.2174,139.8981,588.29,148.93" style="stroke:#181818;stroke-width:1.0;"/></g><!--link Admin to UC_EditDepartment--><g id="link_Admin_UC_EditDepartment"><path d="M4478.13,46.24 C4389.92,52.3 4063.37,73.95 3794,81.8 C3753.27,82.99 898.83,86.43 860,98.8 C828.98,108.68 803.6523,128.425 785.7123,144.875 " fill="none" id="Admin-to-UC_EditDepartment" style="stroke:#181818;stroke-width:1.0;"/><polygon fill="#181818" points="781.29,148.93,790.6268,145.7957,784.9753,145.5508,785.2201,139.8993,781.29,148.93" style="stroke:#181818;stroke-width:1.0;"/></g><!--link Admin to UC_DeleteDepartment--><g id="link_Admin_UC_DeleteDepartment"><path d="M4478.13,46.24 C4389.92,52.28 4063.37,73.88 3794,81.8 C3718.98,84 1164.79,80.48 1092,98.8 C1054.26,108.3 1020.3414,127.8604 995.7114,144.2904 " fill="none" id="Admin-to-UC_DeleteDepartment" style="stroke:#181818;stroke-width:1.0;"/><polygon fill="#181818" points="990.72,147.62,1000.4268,145.9532,994.8795,144.8453,995.9873,139.298,990.72,147.62" style="stroke:#181818;stroke-width:1.0;"/></g><!--link Admin to UC_ViewAttendanceRecords--><g id="link_Admin_UC_ViewAttendanceRecords"><path d="M4523.77,44.9 C4645.72,46.41 5222.64,55.75 5395,98.8 C5434.21,108.59 5470.5455,125.7801 5499.4455,141.4501 " fill="none" id="Admin-to-UC_ViewAttendanceRecords" style="stroke:#181818;stroke-width:1.0;"/><polygon fill="#181818" points="5504.72,144.31,5498.7148,136.5037,5500.3245,141.9267,5494.9016,143.5365,5504.72,144.31" style="stroke:#181818;stroke-width:1.0;"/></g><!--link Admin to UC_ViewAttendanceDetails--><g id="link_Admin_UC_ViewAttendanceDetails"><path d="M4523.8,45.08 C4676.95,48.07 5553.21,66.47 5667,98.8 C5700.52,108.32 5729.9127,125.2793 5753.4127,141.0993 " fill="none" id="Admin-to-UC_ViewAttendanceDetails" style="stroke:#181818;stroke-width:1.0;"/><polygon fill="#181818" points="5758.39,144.45,5753.1579,136.1058,5754.2423,141.6578,5748.6903,142.7422,5758.39,144.45" style="stroke:#181818;stroke-width:1.0;"/></g><!--link Admin to UC_AddAttendanceRecord--><g id="link_Admin_UC_AddAttendanceRecord"><path d="M4523.79,44.73 C4711.4,45.47 5998.21,52.26 6163,98.8 C6196.36,108.22 6225.3917,125.5534 6248.2617,141.5334 " fill="none" id="Admin-to-UC_AddAttendanceRecord" style="stroke:#181818;stroke-width:1.0;"/><polygon fill="#181818" points="6253.18,144.97,6248.0936,136.5362,6249.0814,142.1062,6243.5115,143.094,6253.18,144.97" style="stroke:#181818;stroke-width:1.0;"/></g><!--link Admin to UC_EditAttendanceRecord--><g id="link_Admin_UC_EditAttendanceRecord"><path d="M4523.74,44.64 C4725.73,44.6 6209.64,46.1 6399,98.8 C6432.61,108.15 6461.92,125.5102 6485,141.5202 " fill="none" id="Admin-to-UC_EditAttendanceRecord" style="stroke:#181818;stroke-width:1.0;"/><polygon fill="#181818" points="6489.93,144.94,6484.8149,136.5236,6485.8217,142.0902,6480.2551,143.0969,6489.93,144.94" style="stroke:#181818;stroke-width:1.0;"/></g><!--link Admin to UC_DeleteAttendanceRecord--><g id="link_Admin_UC_DeleteAttendanceRecord"><path d="M4523.69,44.91 C4694.06,46.97 5769.84,61.38 5909,98.8 C5943.21,108 5973.4779,124.459 5998.1679,140.169 " fill="none" id="Admin-to-UC_DeleteAttendanceRecord" style="stroke:#181818;stroke-width:1.0;"/><polygon fill="#181818" points="6003.23,143.39,5997.7841,135.1838,5999.0116,140.7058,5993.4895,141.9333,6003.23,143.39" style="stroke:#181818;stroke-width:1.0;"/></g><!--link Admin to UC_ViewLeaveApplications--><g id="link_Admin_UC_ViewLeaveApplications"><path d="M4523.9,44.86 C4760.06,47.03 6745.83,66.22 6865,98.8 C6898.63,107.99 6927.9849,125.172 6951.2549,141.162 " fill="none" id="Admin-to-UC_ViewLeaveApplications" style="stroke:#181818;stroke-width:1.0;"/><polygon fill="#181818" points="6956.2,144.56,6951.0477,136.1663,6952.0791,141.7283,6946.5171,142.7597,6956.2,144.56" style="stroke:#181818;stroke-width:1.0;"/></g><!--link Admin to UC_ViewLeaveDetails--><g id="link_Admin_UC_ViewLeaveDetails"><path d="M4523.78,44.59 C4739.56,44.11 6420.43,42.23 6635,98.8 C6672.64,108.72 6706.5118,128.4357 6730.9418,144.7657 " fill="none" id="Admin-to-UC_ViewLeaveDetails" style="stroke:#181818;stroke-width:1.0;"/><polygon fill="#181818" points="6735.93,148.1,6730.6706,139.773,6731.7732,145.3214,6726.2248,146.424,6735.93,148.1" style="stroke:#181818;stroke-width:1.0;"/></g><!--link Admin to UC_ApplyForLeave--><g id="link_Admin_UC_ApplyForLeave"><path d="M4523.63,44.66 C4795.24,44.84 7423.12,47.93 7577,98.8 C7607.67,108.94 7632.562,128.8172 7650.062,145.2172 " fill="none" id="Admin-to-UC_ApplyForLeave" style="stroke:#181818;stroke-width:1.0;"/><polygon fill="#181818" points="7654.44,149.32,7650.6082,140.2471,7650.7917,145.901,7645.1378,146.0844,7654.44,149.32" style="stroke:#181818;stroke-width:1.0;"/></g><!--link Admin to UC_EditLeaveApplication--><g id="link_Admin_UC_EditLeaveApplication"><path d="M4523.85,44.79 C4772.76,46.38 6973.7,61.49 7105,98.8 C7138.15,108.22 7166.7536,126.1391 7188.7636,142.2991 " fill="none" id="Admin-to-UC_EditLeaveApplication" style="stroke:#181818;stroke-width:1.0;"/><polygon fill="#181818" points="7193.6,145.85,7188.7127,137.2993,7189.5697,142.8909,7183.9781,143.7479,7193.6,145.85" style="stroke:#181818;stroke-width:1.0;"/></g><!--link Admin to UC_DeleteLeaveApplication--><g id="link_Admin_UC_DeleteLeaveApplication"><path d="M4523.79,44.77 C4784.08,46.19 7189.22,60.33 7333,98.8 C7366.88,107.86 7396.5452,124.8757 7420.2152,140.8357 " fill="none" id="Admin-to-UC_DeleteLeaveApplication" style="stroke:#181818;stroke-width:1.0;"/><polygon fill="#181818" points="7425.19,144.19,7419.9641,135.842,7421.0444,141.3947,7415.4916,142.475,7425.19,144.19" style="stroke:#181818;stroke-width:1.0;"/></g><!--link Admin to UC_ViewPerformanceReviews--><g id="link_Admin_UC_ViewPerformanceReviews"><path d="M4478.13,46.23 C4389.92,52.25 4063.37,73.79 3794,81.8 C3726.11,83.82 1414.91,82.41 1349,98.8 C1314.2,107.45 1283.3794,123.9904 1258.3294,139.8504 " fill="none" id="Admin-to-UC_ViewPerformanceReviews" style="stroke:#181818;stroke-width:1.0;"/><polygon fill="#181818" points="1253.26,143.06,1263.0038,141.6252,1257.4845,140.3853,1258.7243,134.866,1253.26,143.06" style="stroke:#181818;stroke-width:1.0;"/></g><!--link Admin to UC_ViewPerformanceDetails--><g id="link_Admin_UC_ViewPerformanceDetails"><path d="M4478.13,46.23 C4389.92,52.22 4063.36,73.68 3794,81.8 C3733.05,83.64 1658.07,83.68 1599,98.8 C1564.62,107.6 1534.3832,124.4833 1510.1132,140.4433 " fill="none" id="Admin-to-UC_ViewPerformanceDetails" style="stroke:#181818;stroke-width:1.0;"/><polygon fill="#181818" points="1505.1,143.74,1514.8175,142.1371,1509.2776,140.9928,1510.422,135.4529,1505.1,143.74" style="stroke:#181818;stroke-width:1.0;"/></g><!--link Admin to UC_AddPerformanceReview--><g id="link_Admin_UC_AddPerformanceReview"><path d="M4478.13,46.22 C4389.92,52.18 4063.36,73.55 3794,81.8 C3739.88,83.46 1897.4,85.17 1845,98.8 C1810.85,107.68 1780.9023,124.7369 1757.0423,140.7469 " fill="none" id="Admin-to-UC_AddPerformanceReview" style="stroke:#181818;stroke-width:1.0;"/><polygon fill="#181818" points="1752.06,144.09,1761.7622,142.3969,1756.2119,141.3041,1757.3047,135.7538,1752.06,144.09" style="stroke:#181818;stroke-width:1.0;"/></g><!--link Admin to UC_EditPerformanceReview--><g id="link_Admin_UC_EditPerformanceReview"><path d="M4478.13,46.21 C4389.92,52.13 4063.35,73.38 3794,81.8 C3699.43,84.75 2182.55,74.92 2091,98.8 C2056.85,107.7 2026.913,124.7478 2003.043,140.7578 " fill="none" id="Admin-to-UC_EditPerformanceReview" style="stroke:#181818;stroke-width:1.0;"/><polygon fill="#181818" points="1998.06,144.1,2007.7626,142.4087,2002.2125,141.3149,2003.3063,135.7648,1998.06,144.1" style="stroke:#181818;stroke-width:1.0;"/></g><!--link Admin to UC_DeletePerformanceReview--><g id="link_Admin_UC_DeletePerformanceReview"><path d="M4478.13,46.19 C4389.92,52.06 4063.35,73.11 3794,81.8 C3715.31,84.34 2453.97,82.25 2377,98.8 C2336.5,107.51 2298.8639,124.4539 2268.6339,140.3039 " fill="none" id="Admin-to-UC_DeletePerformanceReview" style="stroke:#181818;stroke-width:1.0;"/><polygon fill="#181818" points="2263.32,143.09,2273.1483,142.4534,2267.7482,140.7682,2269.4334,135.3682,2263.32,143.09" style="stroke:#181818;stroke-width:1.0;"/></g><!--link Admin to UC_ViewPayrollRecords--><g id="link_Admin_UC_ViewPayrollRecords"><path d="M4478.13,46.17 C4389.91,51.97 4063.34,72.82 3794,81.8 C3727.42,84.02 2659,80.3 2595,98.8 C2562.32,108.25 2534.4259,126.522 2513.2859,142.782 " fill="none" id="Admin-to-UC_ViewPayrollRecords" style="stroke:#181818;stroke-width:1.0;"/><polygon fill="#181818" points="2508.53,146.44,2518.1026,144.1235,2512.4933,143.3916,2513.2252,137.7823,2508.53,146.44" style="stroke:#181818;stroke-width:1.0;"/></g><!--link Admin to UC_ViewPayrollDetails--><g id="link_Admin_UC_ViewPayrollDetails"><path d="M4478.12,46.15 C4389.91,51.85 4063.32,72.41 3794,81.8 C3739.19,83.71 2859.53,83.05 2807,98.8 C2774.85,108.44 2747.6948,127.0489 2727.4348,143.3489 " fill="none" id="Admin-to-UC_ViewPayrollDetails" style="stroke:#181818;stroke-width:1.0;"/><polygon fill="#181818" points="2722.76,147.11,2732.2797,144.5849,2726.6557,143.9757,2727.2649,138.3518,2722.76,147.11" style="stroke:#181818;stroke-width:1.0;"/></g><!--link Admin to UC_AddPayrollRecord--><g id="link_Admin_UC_AddPayrollRecord"><path d="M4478.12,46.11 C4389.9,51.68 4063.3,71.79 3794,81.8 C3750.69,83.41 3055.41,85.99 3014,98.8 C2982.17,108.65 2955.4999,127.6196 2935.9099,143.9396 " fill="none" id="Admin-to-UC_AddPayrollRecord" style="stroke:#181818;stroke-width:1.0;"/><polygon fill="#181818" points="2931.3,147.78,2940.7751,145.0927,2935.1416,144.5797,2935.6546,138.9461,2931.3,147.78" style="stroke:#181818;stroke-width:1.0;"/></g><!--link Admin to UC_EditPayrollRecord--><g id="link_Admin_UC_EditPayrollRecord"><path d="M4478.12,46.04 C4389.89,51.37 4063.26,70.73 3794,81.8 C3730.36,84.41 3281.77,79.73 3221,98.8 C3189.42,108.71 3162.9397,127.4414 3143.3197,143.7014 " fill="none" id="Admin-to-UC_EditPayrollRecord" style="stroke:#181818;stroke-width:1.0;"/><polygon fill="#181818" points="3138.7,147.53,3148.182,144.8669,3142.5498,144.3395,3143.0772,138.7073,3138.7,147.53" style="stroke:#181818;stroke-width:1.0;"/></g><!--link Admin to UC_DeletePayrollRecord--><g id="link_Admin_UC_DeletePayrollRecord"><path d="M4478.11,45.86 C4389.85,50.51 4063.12,67.73 3794,81.8 C3721.33,85.6 3537.35,80.2 3467,98.8 C3429,108.85 3394.3324,127.3158 3368.0824,143.3258 " fill="none" id="Admin-to-UC_DeletePayrollRecord" style="stroke:#181818;stroke-width:1.0;"/><polygon fill="#181818" points="3362.96,146.45,3372.7265,145.1787,3367.2287,143.8465,3368.5609,138.3487,3362.96,146.45" style="stroke:#181818;stroke-width:1.0;"/></g><!--link Admin to UC_ViewProfile--><g id="link_Admin_UC_ViewProfile"><path d="M4523.75,44.91 C4862.68,48.71 8875.26,93.88 8889,98.8 C8918.55,109.37 8941.4335,130.6091 8956.4635,146.9891 " fill="none" id="Admin-to-UC_ViewProfile" style="stroke:#181818;stroke-width:1.0;"/><polygon fill="#181818" points="8960.52,151.41,8957.3825,142.0743,8957.1395,147.7259,8951.4879,147.483,8960.52,151.41" style="stroke:#181818;stroke-width:1.0;"/></g><!--link Admin to UC_EditProfile--><g id="link_Admin_UC_EditProfile"><path d="M4523.86,44.91 C4870.74,48.83 9049.88,96.18 9057,98.8 C9085.99,109.46 9108.0451,130.838 9122.3851,147.198 " fill="none" id="Admin-to-UC_EditProfile" style="stroke:#181818;stroke-width:1.0;"/><polygon fill="#181818" points="9126.34,151.71,9123.4156,142.3053,9123.0442,147.95,9117.3996,147.5786,9126.34,151.71" style="stroke:#181818;stroke-width:1.0;"/></g><!--link Admin to UC_ViewNotifications--><g id="link_Admin_UC_ViewNotifications"><path d="M4523.76,44.91 C4852.81,48.64 8639.24,91.78 8666,98.8 C8703.43,108.62 8736.8786,128.7621 8760.5986,145.2021 " fill="none" id="Admin-to-UC_ViewNotifications" style="stroke:#181818;stroke-width:1.0;"/><polygon fill="#181818" points="8765.53,148.62,8760.4115,140.2056,8761.4205,145.7718,8755.8544,146.7808,8765.53,148.62" style="stroke:#181818;stroke-width:1.0;"/></g><!--link Admin to UC_ManageRoles--><g id="link_Admin_UC_ManageRoles"><path d="M4523.72,44.81 C4830.2,47.05 8135.97,71.72 8231,98.8 C8266.99,109.05 8298.3758,130.3339 8319.5158,146.7939 " fill="none" id="Admin-to-UC_ManageRoles" style="stroke:#181818;stroke-width:1.0;"/><polygon fill="#181818" points="8324.25,150.48,8319.6061,141.7947,8320.3048,147.4082,8314.6913,148.1069,8324.25,150.48" style="stroke:#181818;stroke-width:1.0;"/></g><!--link Admin to UC_ManageAccessControl--><g id="link_Admin_UC_ManageAccessControl"><path d="M4523.78,44.89 C4841.72,48.18 8381.68,85.1 8432,98.8 C8465.67,107.97 8494.948,125.5502 8517.788,141.6702 " fill="none" id="Admin-to-UC_ManageAccessControl" style="stroke:#181818;stroke-width:1.0;"/><polygon fill="#181818" points="8522.69,145.13,8517.6434,136.6723,8518.605,142.2469,8513.0304,143.2084,8522.69,145.13" style="stroke:#181818;stroke-width:1.0;"/></g><!--link Admin to UC_ViewReports--><g id="link_Admin_UC_ViewReports"><path d="M4478.28,45.7 C4346.06,51.87 3680.38,83.58 3640,98.8 C3610.53,109.91 3587.1081,130.3531 3571.1981,146.5231 " fill="none" id="Admin-to-UC_ViewReports" style="stroke:#181818;stroke-width:1.0;"/><polygon fill="#181818" points="3566.99,150.8,3576.1534,147.1901,3570.4968,147.2359,3570.4509,141.5793,3566.99,150.8" style="stroke:#181818;stroke-width:1.0;"/></g><!--link Admin to UC_ViewReportDetails--><g id="link_Admin_UC_ViewReportDetails"><path d="M4478.37,45.08 C4377.78,47.2 3971,58.19 3851,98.8 C3819.63,109.42 3792.9574,127.6398 3772.7874,143.5798 " fill="none" id="Admin-to-UC_ViewReportDetails" style="stroke:#181818;stroke-width:1.0;"/><polygon fill="#181818" points="3768.08,147.3,3777.6213,144.858,3772.0029,144.1998,3772.661,138.5814,3768.08,147.3" style="stroke:#181818;stroke-width:1.0;"/></g><!--link Admin to UC_CreateReport--><g id="link_Admin_UC_CreateReport"><path d="M4478.22,45.7 C4395.88,49.76 4114.11,65.78 4031,98.8 C4001.64,110.47 3977.7526,130.1603 3960.9626,146.0903 " fill="none" id="Admin-to-UC_CreateReport" style="stroke:#181818;stroke-width:1.0;"/><polygon fill="#181818" points="3956.61,150.22,3965.8921,146.9272,3960.2372,146.7786,3960.3858,141.1237,3956.61,150.22" style="stroke:#181818;stroke-width:1.0;"/></g><!--link Admin to UC_EditReport--><g id="link_Admin_UC_EditReport"><path d="M4478.43,44.86 C4426.28,46.13 4294.33,53.9 4196,98.8 C4168,111.58 4145.5973,131.7627 4130.3673,147.3927 " fill="none" id="Admin-to-UC_EditReport" style="stroke:#181818;stroke-width:1.0;"/><polygon fill="#181818" points="4126.18,151.69,4135.3258,148.0356,4129.6694,148.1089,4129.5961,142.4526,4126.18,151.69" style="stroke:#181818;stroke-width:1.0;"/></g><!--link Admin to UC_DeleteReport--><g id="link_Admin_UC_DeleteReport"><path d="M4478.47,55.88 C4457.27,66.57 4424.71,83.29 4397,98.8 C4366.33,115.97 4336.8437,133.8453 4314.3237,147.7653 " fill="none" id="Admin-to-UC_DeleteReport" style="stroke:#181818;stroke-width:1.0;"/><polygon fill="#181818" points="4309.22,150.92,4318.9787,149.5904,4313.4731,148.2911,4314.7724,142.7855,4309.22,150.92" style="stroke:#181818;stroke-width:1.0;"/></g><!--link Employee to UC_Login--><g id="link_Employee_UC_Login"><path d="M7841,82.06 C7841,105.75 7841,129.01 7841,145.99 " fill="none" id="Employee-to-UC_Login" style="stroke:#181818;stroke-width:1.0;"/><polygon fill="#181818" points="7841,151.99,7845,142.99,7841,146.99,7837,142.99,7841,151.99" style="stroke:#181818;stroke-width:1.0;"/></g><!--link Employee to UC_ViewEmployeeDetails--><g id="link_Employee_UC_ViewEmployeeDetails"><path d="M7806.04,44.78 C7480.54,46.03 4988.22,56.95 4838,98.8 C4804.59,108.11 4775.6402,125.8555 4753.2102,141.9955 " fill="none" id="Employee-to-UC_ViewEmployeeDetails" style="stroke:#181818;stroke-width:1.0;"/><polygon fill="#181818" points="4748.34,145.5,4757.9816,143.4901,4752.3985,142.5796,4753.309,136.9965,4748.34,145.5" style="stroke:#181818;stroke-width:1.0;"/></g><!--link Employee to UC_ViewProfile--><g id="link_Employee_UC_ViewProfile"><path d="M7875.98,45.19 C8047.21,47.98 8792.62,62.16 8889,98.8 C8918.16,109.89 8940.9231,130.7365 8956.0731,146.9465 " fill="none" id="Employee-to-UC_ViewProfile" style="stroke:#181818;stroke-width:1.0;"/><polygon fill="#181818" points="8960.17,151.33,8956.947,142.0234,8956.7559,147.677,8951.1023,147.4859,8960.17,151.33" style="stroke:#181818;stroke-width:1.0;"/></g><!--link Employee to UC_EditProfile--><g id="link_Employee_UC_EditProfile"><path d="M7875.88,44.88 C8063.06,46.3 8944.33,55.27 9057,98.8 C9085.81,109.93 9107.8952,131.1843 9122.2952,147.3943 " fill="none" id="Employee-to-UC_EditProfile" style="stroke:#181818;stroke-width:1.0;"/><polygon fill="#181818" points="9126.28,151.88,9123.2932,142.4949,9122.9593,148.1419,9117.3123,147.808,9126.28,151.88" style="stroke:#181818;stroke-width:1.0;"/></g><!--link Employee to UC_ViewNotifications--><g id="link_Employee_UC_ViewNotifications"><path d="M7875.89,44.94 C8012.94,46.39 8514.21,54.67 8666,98.8 C8702.69,109.47 8735.6654,128.9854 8759.5254,145.0754 " fill="none" id="Employee-to-UC_ViewNotifications" style="stroke:#181818;stroke-width:1.0;"/><polygon fill="#181818" points="8764.5,148.43,8759.2745,140.0817,8760.3545,145.6345,8754.8017,146.7145,8764.5,148.43" style="stroke:#181818;stroke-width:1.0;"/></g><!--link Employee to UC_ApplyForLeave--><g id="link_Employee_UC_ApplyForLeave"><path d="M7806.19,69.51 C7772.58,93.51 7727.5424,125.6626 7698.7024,146.2626 " fill="none" id="Employee-to-UC_ApplyForLeave" style="stroke:#181818;stroke-width:1.0;"/><polygon fill="#181818" points="7693.82,149.75,7703.4686,147.7738,7697.8887,146.8438,7698.8186,141.2639,7693.82,149.75" style="stroke:#181818;stroke-width:1.0;"/></g><!--link Employee to UC_ViewAttendanceDetails--><g id="link_Employee_UC_ViewAttendanceDetails"><path d="M7806.03,44.63 C7560.42,44.63 6098.61,46.81 5909,98.8 C5875.16,108.08 5845.5222,125.2671 5822.0422,141.2271 " fill="none" id="Employee-to-UC_ViewAttendanceDetails" style="stroke:#181818;stroke-width:1.0;"/><polygon fill="#181818" points="5817.08,144.6,5826.7719,142.8487,5821.2152,141.7892,5822.2747,136.2325,5817.08,144.6" style="stroke:#181818;stroke-width:1.0;"/></g><!--link Manager to UC_Login--><g id="link_Manager_UC_Login"><path d="M3776.99,46.78 C3876.37,53.5 4196.04,74.24 4461,81.8 C4506.84,83.11 7720.05,82.72 7763,98.8 C7791.8,109.58 7813.2853,131.607 7826.7953,147.937 " fill="none" id="Manager-to-UC_Login" style="stroke:#181818;stroke-width:1.0;"/><polygon fill="#181818" points="7830.62,152.56,7827.965,143.0757,7827.4328,148.7075,7821.801,148.1753,7830.62,152.56" style="stroke:#181818;stroke-width:1.0;"/></g><!--link Manager to UC_ViewEmployeeList--><g id="link_Manager_UC_ViewEmployeeList"><path d="M3776.92,45.7 C3886.97,49.7 4259.1,65.44 4373,98.8 C4410.1,109.66 4443.8169,128.5704 4468.8369,144.4804 " fill="none" id="Manager-to-UC_ViewEmployeeList" style="stroke:#181818;stroke-width:1.0;"/><polygon fill="#181818" points="4473.9,147.7,4468.4518,139.4953,4469.6808,145.017,4464.1591,146.246,4473.9,147.7" style="stroke:#181818;stroke-width:1.0;"/></g><!--link Manager to UC_ViewEmployeeDetails--><g id="link_Manager_UC_ViewEmployeeDetails"><path d="M3777,46.2 C3926.27,53.73 4565.55,86.55 4606,98.8 C4638.97,108.79 4667.6869,126.2417 4690.1869,142.1117 " fill="none" id="Manager-to-UC_ViewEmployeeDetails" style="stroke:#181818;stroke-width:1.0;"/><polygon fill="#181818" points="4695.09,145.57,4690.0409,137.1138,4691.0041,142.6881,4685.4299,143.6513,4695.09,145.57" style="stroke:#181818;stroke-width:1.0;"/></g><!--link Manager to UC_ViewDepartmentList--><g id="link_Manager_UC_ViewDepartmentList"><path d="M3714.87,44.67 C3377.42,44.88 406.22,48.21 229,98.8 C196.07,108.2 167.8144,126.2925 146.2444,142.5225 " fill="none" id="Manager-to-UC_ViewDepartmentList" style="stroke:#181818;stroke-width:1.0;"/><polygon fill="#181818" points="141.45,146.13,151.0466,143.9151,145.4453,143.1238,146.2366,137.5225,141.45,146.13" style="stroke:#181818;stroke-width:1.0;"/></g><!--link Manager to UC_ViewDepartmentDetails--><g id="link_Manager_UC_ViewDepartmentDetails"><path d="M3715.07,44.73 C3391.75,45.66 639.35,54.79 474,98.8 C440.11,107.82 410.4431,124.8332 386.7831,140.8032 " fill="none" id="Manager-to-UC_ViewDepartmentDetails" style="stroke:#181818;stroke-width:1.0;"/><polygon fill="#181818" points="381.81,144.16,391.5076,142.4403,385.9543,141.3627,387.0319,135.8094,381.81,144.16" style="stroke:#181818;stroke-width:1.0;"/></g><!--link Manager to UC_ViewAttendanceRecords--><g id="link_Manager_UC_ViewAttendanceRecords"><path d="M3777,46.64 C3876.39,52.92 4196.09,72.51 4461,81.8 C4564.73,85.44 5293.79,75.78 5395,98.8 C5434.68,107.82 5471.3197,125.2957 5500.1897,141.2657 " fill="none" id="Manager-to-UC_ViewAttendanceRecords" style="stroke:#181818;stroke-width:1.0;"/><polygon fill="#181818" points="5505.44,144.17,5499.5008,136.3134,5501.0648,141.7498,5495.6284,143.3137,5505.44,144.17" style="stroke:#181818;stroke-width:1.0;"/></g><!--link Manager to UC_ViewAttendanceDetails--><g id="link_Manager_UC_ViewAttendanceDetails"><path d="M3776.99,46.68 C3876.38,53.1 4196.08,73.05 4461,81.8 C4527.97,84.01 5602.26,81.53 5667,98.8 C5700.9,107.84 5730.5354,125.056 5754.0054,141.086 " fill="none" id="Manager-to-UC_ViewAttendanceDetails" style="stroke:#181818;stroke-width:1.0;"/><polygon fill="#181818" points="5758.96,144.47,5753.7841,136.0909,5754.8311,141.65,5749.272,142.6971,5758.96,144.47" style="stroke:#181818;stroke-width:1.0;"/></g><!--link Manager to UC_ViewLeaveApplications--><g id="link_Manager_UC_ViewLeaveApplications"><path d="M3776.99,46.76 C3876.37,53.41 4196.05,73.98 4461,81.8 C4527.75,83.77 6800.45,81.7 6865,98.8 C6898.94,107.79 6928.5392,125.2013 6951.7892,141.3213 " fill="none" id="Manager-to-UC_ViewLeaveApplications" style="stroke:#181818;stroke-width:1.0;"/><polygon fill="#181818" points="6956.72,144.74,6951.6029,136.3248,6952.611,141.8911,6947.0447,142.8992,6956.72,144.74" style="stroke:#181818;stroke-width:1.0;"/></g><!--link Manager to UC_ViewLeaveDetails--><g id="link_Manager_UC_ViewLeaveDetails"><path d="M3776.99,46.75 C3876.37,53.38 4196.05,73.88 4461,81.8 C4521.36,83.6 6576.47,83.92 6635,98.8 C6672.73,108.39 6706.5941,128.1574 6730.9941,144.5974 " fill="none" id="Manager-to-UC_ViewLeaveDetails" style="stroke:#181818;stroke-width:1.0;"/><polygon fill="#181818" points="6735.97,147.95,6730.7412,139.6038,6731.8234,145.1561,6726.271,146.2383,6735.97,147.95" style="stroke:#181818;stroke-width:1.0;"/></g><!--link Manager to UC_ViewPerformanceReviews--><g id="link_Manager_UC_ViewPerformanceReviews"><path d="M3714.84,44.5 C3450.59,43.32 1588.62,37.22 1349,98.8 C1314.39,107.69 1283.7097,124.1067 1258.6397,139.8667 " fill="none" id="Manager-to-UC_ViewPerformanceReviews" style="stroke:#181818;stroke-width:1.0;"/><polygon fill="#181818" points="1253.56,143.06,1263.3083,141.6565,1257.7931,140.3989,1259.0506,134.8836,1253.56,143.06" style="stroke:#181818;stroke-width:1.0;"/></g><!--link Manager to UC_ViewPerformanceDetails--><g id="link_Manager_UC_ViewPerformanceDetails"><path d="M3715.02,44.56 C3467.33,43.98 1812.31,42.2 1599,98.8 C1564.82,107.87 1534.7042,124.6202 1510.4242,140.4702 " fill="none" id="Manager-to-UC_ViewPerformanceDetails" style="stroke:#181818;stroke-width:1.0;"/><polygon fill="#181818" points="1505.4,143.75,1515.1229,142.1798,1509.5869,141.0168,1510.7498,135.4808,1505.4,143.75" style="stroke:#181818;stroke-width:1.0;"/></g><!--link Manager to UC_ViewPayrollRecords--><g id="link_Manager_UC_ViewPayrollRecords"><path d="M3715.08,45.19 C3542.76,48.31 2704.72,65.12 2595,98.8 C2562.48,108.78 2534.5785,126.9916 2513.3885,143.0816 " fill="none" id="Manager-to-UC_ViewPayrollRecords" style="stroke:#181818;stroke-width:1.0;"/><polygon fill="#181818" points="2508.61,146.71,2518.1968,144.453,2512.5921,143.6863,2513.3588,138.0816,2508.61,146.71" style="stroke:#181818;stroke-width:1.0;"/></g><!--link Manager to UC_ViewPayrollDetails--><g id="link_Manager_UC_ViewPayrollDetails"><path d="M3715.25,44.36 C3573.39,43.34 2981.67,42.57 2807,98.8 C2775.26,109.02 2748.3079,127.3204 2727.9679,143.3904 " fill="none" id="Manager-to-UC_ViewPayrollDetails" style="stroke:#181818;stroke-width:1.0;"/><polygon fill="#181818" points="2723.26,147.11,2732.8016,144.6692,2727.1833,144.0103,2727.8422,138.392,2723.26,147.11" style="stroke:#181818;stroke-width:1.0;"/></g><!--link Manager to UC_ViewReports--><g id="link_Manager_UC_ViewReports"><path d="M3715.02,58.6 C3693.42,68.77 3664.26,83.42 3640,98.8 C3614.69,114.85 3592.295,132.6417 3575.205,146.9917 " fill="none" id="Manager-to-UC_ViewReports" style="stroke:#181818;stroke-width:1.0;"/><polygon fill="#181818" points="3570.61,150.85,3580.0746,148.1259,3574.4391,147.6348,3574.9303,141.9993,3570.61,150.85" style="stroke:#181818;stroke-width:1.0;"/></g><!--link Manager to UC_ViewReportDetails--><g id="link_Manager_UC_ViewReportDetails"><path d="M3746,82.06 C3746,103.38 3746,123.21 3746,140.55 " fill="none" id="Manager-to-UC_ViewReportDetails" style="stroke:#181818;stroke-width:1.0;"/><polygon fill="#181818" points="3746,146.55,3750,137.55,3746,141.55,3742,137.55,3746,146.55" style="stroke:#181818;stroke-width:1.0;"/></g><!--SRC=[ZLX1Rjim4Bph5KBk-K81mKvFRX4uQAy58MrS0P9eK7G2e-ZVIucanENkqht5EpFBuPXPCb6jrQPkkh6VAhN-_39U1tq721-_gKbTm5ILWTQgwJ90_TJSx6-ORDygs-lfgVvJrVLjXbRD3ZpfI-zgQgv_77wj7rBq39T-jc0Y8NvEEL-rkMXRlwfv_jIcYrHVZjNgBx8KNGU_exEN-VhPm-UskVhaLesD5oG2IrrM7S6gVfWvOO1IRTDrcpHAN6qBEA6-TBqbtAN8aOymW0L2z-LDWFCvmbKPkyJo8A64c6UqGsnAYPB9QKU5f7P2ajLU96bH_bBc1I4nAl508iAfDTR2rAcfVNIk4k8PMdSyqTvtD80bFPFTZWhPaUMJ2FF5IP2YU45Bwf2ggFSuwO0ZFe7wU9IkvpJNwn163afdHLDGq3F1hW2NgUjshz_T-5iPMvfBsOsXjKXo92xJ77EJJ8wYtkEa0yxn5OppE_x7MKsPP_Xm9PH90WUqs859DO65yqej90UM6219o_85Bkf3rd87Jw0zihJLtUXXU9HqO34Z8K3IF8XABbqFIScY9TDKqmLfegniJLFInIHPPKWHQN621psEvEtWzsxqUpy0shClKTkOklgbrBNhTstxTsvy820p-GRjpVJsdjdqttfzrWDihNnjBJ7KfcrXdkk3dgnB16iy5g3Cm1cksjYPYsc3zgs4aa3b3fD7cBDqCA0i16LK-AAlaUy2KvSI9OOpWwc-6CXk- -jZj7v-_h8_8569FDT4DEuB4T8N60BGSmiXsSkAh9SzZ0guv2XvWH1F4aRUBcHT-kueK2HhvFuc1iiCuHL0dD1hdAVmFj7DJ1oIkvDnMEO8DsE98mLAxnRYzm55kgEe6tpBIBZe5CrlwbA6kVbFLm-ZcZRc03gh4PpENmR0GvOqZfDJ0DY0q3GaU-3gQD9Lsr-LQDJbLMwUSPoOMOwbUN8w76dEmBzNd9uEa2hyom3lAokI8Lx0OsE6aatU8gFGXWxA8gdGYKunYLHemWoQCglK2uy0cL7e4NyxH2Xe_m40]--></g></svg>